<svg xmlns="http://www.w3.org/2000/svg" viewBox="0 0 1200 450">
  <defs>
    <linearGradient id="skyGrad" x1="0" y1="0" x2="0" y2="1">
      <stop offset="0%" stop-color="#0d0200"/>
      <stop offset="35%" stop-color="#5c1a00"/>
      <stop offset="65%" stop-color="#a86020" stop-opacity="0.8"/>
      <stop offset="100%" stop-color="#1a0a00"/>
    </linearGradient>
    <radialGradient id="sun" cx="50%" cy="40%" r="15%">
      <stop offset="0%" stop-color="#FFD700" stop-opacity="0.6"/>
      <stop offset="100%" stop-color="#C9A84C" stop-opacity="0"/>
    </radialGradient>
  </defs>
  <rect width="1200" height="450" fill="url(#skyGrad)"/>
  <rect width="1200" height="450" fill="url(#sun)"/>
  <ellipse cx="600" cy="200" rx="250" ry="80" fill="#C9A84C" opacity="0.08"/>
  <!-- Left building complex -->
  <rect x="30" y="280" width="60" height="170" fill="#1a0800" opacity="0.95"/>
  <rect x="20" y="300" width="80" height="150" fill="#1a0800" opacity="0.9"/>
  <ellipse cx="60" cy="280" rx="45" ry="55" fill="#2a1200" opacity="0.95"/>
  <ellipse cx="60" cy="228" rx="18" ry="22" fill="#C9A84C" opacity="0.55"/>
  <rect x="57" y="200" width="6" height="32" fill="#C9A84C" opacity="0.8"/>
  <polygon points="60,192 54,208 66,208" fill="#C9A84C"/>
  <!-- Right building complex -->
  <rect x="1110" y="280" width="60" height="170" fill="#1a0800" opacity="0.95"/>
  <rect x="1100" y="300" width="80" height="150" fill="#1a0800" opacity="0.9"/>
  <ellipse cx="1140" cy="280" rx="45" ry="55" fill="#C9A84C" opacity="0.65"/>
  <ellipse cx="1140" cy="228" rx="18" ry="22" fill="#C9A84C" opacity="0.85"/>
  <!-- Center palace -->
  <rect x="460" y="290" width="280" height="160" fill="#0d0500" opacity="0.92"/>
  <ellipse cx="600" cy="290" rx="90" ry="100" fill="#1a0800" opacity="0.95"/>
  <ellipse cx="600" cy="195" rx="32" ry="42" fill="#C9A84C" opacity="0.75"/>
  <rect x="596" y="148" width="8" height="52" fill="#C9A84C" opacity="0.9"/>
  <polygon points="600,138 592,158 608,158" fill="#C9A84C"/>
  <!-- Side towers -->
  <rect x="380" y="320" width="40" height="130" fill="#140600" opacity="0.9"/>
  <ellipse cx="400" cy="320" rx="28" ry="35" fill="#2a1000" opacity="0.9"/>
  <rect x="780" y="320" width="40" height="130" fill="#140600" opacity="0.9"/>
  <ellipse cx="800" cy="320" rx="28" ry="35" fill="#C9A84C" opacity="0.5"/>
  <!-- Ground -->
  <rect x="0" y="420" width="1200" height="30" fill="#0a0300" opacity="0.8"/>
</svg>